<mxfile host="65bd71144e">
    <diagram id="lrfJbjIufyaFkcRJHbZ7" name="Page-1">
        <mxGraphModel dx="849" dy="569" grid="1" gridSize="10" guides="1" tooltips="1" connect="1" arrows="1" fold="1" page="1" pageScale="1" pageWidth="850" pageHeight="1100" math="0" shadow="0">
            <root>
                <mxCell id="0"/>
                <mxCell id="1" parent="0"/>
                <mxCell id="22" value="" style="endArrow=classic;html=1;strokeColor=#000000;strokeWidth=5;fontSize=11;" edge="1" parent="1">
                    <mxGeometry width="50" height="50" relative="1" as="geometry">
                        <mxPoint x="280" y="360" as="sourcePoint"/>
                        <mxPoint x="430" y="510" as="targetPoint"/>
                    </mxGeometry>
                </mxCell>
                <mxCell id="23" value="" style="endArrow=classic;html=1;strokeColor=#000000;strokeWidth=5;fontSize=11;" edge="1" parent="1">
                    <mxGeometry width="50" height="50" relative="1" as="geometry">
                        <mxPoint x="280" y="360" as="sourcePoint"/>
                        <mxPoint x="480" y="320" as="targetPoint"/>
                    </mxGeometry>
                </mxCell>
                <mxCell id="24" value="" style="endArrow=classic;html=1;strokeColor=#000000;strokeWidth=5;fontSize=11;" edge="1" parent="1">
                    <mxGeometry width="50" height="50" relative="1" as="geometry">
                        <mxPoint x="280" y="360" as="sourcePoint"/>
                        <mxPoint x="280" y="200" as="targetPoint"/>
                    </mxGeometry>
                </mxCell>
                <mxCell id="28" value="" style="group;rotation=-15;" vertex="1" connectable="0" parent="1">
                    <mxGeometry x="275" y="175" width="200" height="310" as="geometry"/>
                </mxCell>
                <mxCell id="25" value="" style="endArrow=classic;html=1;strokeColor=#FF8000;strokeWidth=3;fontSize=11;dashed=1;" edge="1" parent="28">
                    <mxGeometry width="50" height="50" relative="1" as="geometry">
                        <mxPoint x="5" y="186" as="sourcePoint"/>
                        <mxPoint x="188" y="292" as="targetPoint"/>
                    </mxGeometry>
                </mxCell>
                <mxCell id="26" value="" style="endArrow=classic;html=1;strokeColor=#FF8000;strokeWidth=3;fontSize=11;dashed=1;" edge="1" parent="28">
                    <mxGeometry width="50" height="50" relative="1" as="geometry">
                        <mxPoint x="5" y="186" as="sourcePoint"/>
                        <mxPoint x="188" y="95" as="targetPoint"/>
                    </mxGeometry>
                </mxCell>
                <mxCell id="27" value="" style="endArrow=classic;html=1;strokeColor=#FF8000;strokeWidth=3;fontSize=11;dashed=1;" edge="1" parent="28">
                    <mxGeometry width="50" height="50" relative="1" as="geometry">
                        <mxPoint x="5" y="186" as="sourcePoint"/>
                        <mxPoint x="-37" y="31" as="targetPoint"/>
                    </mxGeometry>
                </mxCell>
                <mxCell id="31" value="" style="verticalLabelPosition=bottom;verticalAlign=top;html=1;shape=mxgraph.basic.arc;startAngle=0.7674369402488821;endAngle=0.521709148741019;strokeColor=#00994D;fontSize=11;fillColor=none;strokeWidth=2;" vertex="1" parent="28">
                    <mxGeometry x="17" y="142" width="20" height="20" as="geometry"/>
                </mxCell>
                <mxCell id="32" value="" style="endArrow=classic;html=1;strokeColor=#00994D;strokeWidth=2;fontSize=11;exitX=0.153;exitY=0.144;exitDx=0;exitDy=0;exitPerimeter=0;" edge="1" parent="28" source="31">
                    <mxGeometry width="50" height="50" relative="1" as="geometry">
                        <mxPoint x="15" y="195" as="sourcePoint"/>
                        <mxPoint x="15" y="155" as="targetPoint"/>
                    </mxGeometry>
                </mxCell>
                <mxCell id="33" value="&lt;span style=&quot;color: rgb(64, 64, 64); font-family: KaTeX_Math; font-style: italic;&quot;&gt;&lt;font style=&quot;font-size: 25px;&quot;&gt;Î¸&lt;/font&gt;&lt;/span&gt;" style="text;html=1;strokeColor=none;fillColor=none;align=center;verticalAlign=middle;whiteSpace=wrap;rounded=0;strokeWidth=3;fontSize=11;labelBackgroundColor=none;" vertex="1" parent="28">
                    <mxGeometry x="40" y="132" width="14" height="30" as="geometry"/>
                </mxCell>
                <mxCell id="41" value="&lt;font face=&quot;KaTeX_Math&quot; color=&quot;#404040&quot;&gt;&lt;span style=&quot;font-size: 25px;&quot;&gt;&lt;i style=&quot;&quot;&gt;&lt;b&gt;r&lt;/b&gt;&lt;/i&gt;&lt;/span&gt;&lt;/font&gt;" style="text;html=1;strokeColor=none;fillColor=none;align=center;verticalAlign=middle;whiteSpace=wrap;rounded=0;strokeWidth=3;fontSize=11;labelBackgroundColor=none;" vertex="1" parent="28">
                    <mxGeometry x="40" y="95" width="14" height="30" as="geometry"/>
                </mxCell>
                <mxCell id="29" value="" style="endArrow=classic;html=1;strokeColor=#00994D;strokeWidth=3;fontSize=11;dashed=1;" edge="1" parent="1">
                    <mxGeometry width="50" height="50" relative="1" as="geometry">
                        <mxPoint x="280" y="360" as="sourcePoint"/>
                        <mxPoint x="320" y="300" as="targetPoint"/>
                    </mxGeometry>
                </mxCell>
                <mxCell id="42" value="&lt;font face=&quot;KaTeX_Math&quot; color=&quot;#404040&quot;&gt;&lt;span style=&quot;font-size: 25px;&quot;&gt;&lt;i style=&quot;&quot;&gt;&lt;b style=&quot;&quot;&gt;z&lt;sub style=&quot;&quot;&gt;B&lt;/sub&gt;&lt;/b&gt;&lt;/i&gt;&lt;/span&gt;&lt;/font&gt;" style="text;html=1;strokeColor=none;fillColor=none;align=center;verticalAlign=middle;whiteSpace=wrap;rounded=0;strokeWidth=3;fontSize=11;" vertex="1" parent="1">
                    <mxGeometry x="210" y="190" width="14" height="30" as="geometry"/>
                </mxCell>
                <mxCell id="44" value="&lt;font face=&quot;KaTeX_Math&quot; color=&quot;#404040&quot;&gt;&lt;span style=&quot;font-size: 25px;&quot;&gt;&lt;i style=&quot;&quot;&gt;&lt;b style=&quot;&quot;&gt;z&lt;sub style=&quot;&quot;&gt;A&lt;/sub&gt;&lt;/b&gt;&lt;/i&gt;&lt;/span&gt;&lt;/font&gt;" style="text;html=1;strokeColor=none;fillColor=none;align=center;verticalAlign=middle;whiteSpace=wrap;rounded=0;strokeWidth=3;fontSize=11;" vertex="1" parent="1">
                    <mxGeometry x="275" y="160" width="14" height="30" as="geometry"/>
                </mxCell>
                <mxCell id="45" value="&lt;font face=&quot;KaTeX_Math&quot; color=&quot;#404040&quot;&gt;&lt;span style=&quot;font-size: 25px;&quot;&gt;&lt;i style=&quot;&quot;&gt;&lt;b style=&quot;&quot;&gt;y&lt;sub style=&quot;&quot;&gt;B&lt;/sub&gt;&lt;/b&gt;&lt;/i&gt;&lt;/span&gt;&lt;/font&gt;" style="text;html=1;strokeColor=none;fillColor=none;align=center;verticalAlign=middle;whiteSpace=wrap;rounded=0;strokeWidth=3;fontSize=11;" vertex="1" parent="1">
                    <mxGeometry x="470" y="250" width="14" height="30" as="geometry"/>
                </mxCell>
                <mxCell id="46" value="&lt;font face=&quot;KaTeX_Math&quot; color=&quot;#404040&quot;&gt;&lt;span style=&quot;font-size: 25px;&quot;&gt;&lt;i style=&quot;&quot;&gt;&lt;b style=&quot;&quot;&gt;y&lt;sub style=&quot;&quot;&gt;A&lt;/sub&gt;&lt;/b&gt;&lt;/i&gt;&lt;/span&gt;&lt;/font&gt;" style="text;html=1;strokeColor=none;fillColor=none;align=center;verticalAlign=middle;whiteSpace=wrap;rounded=0;strokeWidth=3;fontSize=11;" vertex="1" parent="1">
                    <mxGeometry x="490" y="300" width="14" height="30" as="geometry"/>
                </mxCell>
                <mxCell id="47" value="&lt;font face=&quot;KaTeX_Math&quot; color=&quot;#404040&quot;&gt;&lt;span style=&quot;font-size: 25px;&quot;&gt;&lt;i style=&quot;&quot;&gt;&lt;b style=&quot;&quot;&gt;x&lt;sub style=&quot;&quot;&gt;B&lt;/sub&gt;&lt;/b&gt;&lt;/i&gt;&lt;/span&gt;&lt;/font&gt;" style="text;html=1;strokeColor=none;fillColor=none;align=center;verticalAlign=middle;whiteSpace=wrap;rounded=0;strokeWidth=3;fontSize=11;" vertex="1" parent="1">
                    <mxGeometry x="470" y="455" width="14" height="30" as="geometry"/>
                </mxCell>
                <mxCell id="48" value="&lt;font face=&quot;KaTeX_Math&quot; color=&quot;#404040&quot;&gt;&lt;span style=&quot;font-size: 25px;&quot;&gt;&lt;i style=&quot;&quot;&gt;&lt;b style=&quot;&quot;&gt;x&lt;sub style=&quot;&quot;&gt;A&lt;/sub&gt;&lt;/b&gt;&lt;/i&gt;&lt;/span&gt;&lt;/font&gt;" style="text;html=1;strokeColor=none;fillColor=none;align=center;verticalAlign=middle;whiteSpace=wrap;rounded=0;strokeWidth=3;fontSize=11;" vertex="1" parent="1">
                    <mxGeometry x="440" y="500" width="14" height="30" as="geometry"/>
                </mxCell>
            </root>
        </mxGraphModel>
    </diagram>
</mxfile>